HIERARCHY
ROOT Hips
{
	OFFSET 0.000000 0.000000 0.000000 
	CHANNELS 6 Xposition Yposition Zposition Yrotation Zrotation Xrotation 
	JOINT Lumbar
	{
		OFFSET 0.000000 0.000000 0.000000 
		CHANNELS 3 Zrotation Xrotation Yrotation
		JOINT Neck
		{
			OFFSET 0.000000 0.445665 0.000000 
			CHANNELS 3 Zrotation Xrotation Yrotation
			End Site
			{
				OFFSET 0.000000 0.227535 0.000000 
			}
		}
		JOINT RightShoulder
		{
			OFFSET 0.019635 0.377685 0.194865 
			CHANNELS 3 Zrotation Xrotation Yrotation
			JOINT RightElbow
			{
				OFFSET 0.000000 -0.243375 0.000000 
				CHANNELS 2 Zrotation Yrotation
				JOINT RightWrist
				{
					OFFSET 0.000000 -0.264825 0.000000 
					CHANNELS 2 Zrotation Xrotation
					End Site
					{
						OFFSET 0.006600 -0.176220 0.000990 
					}
				}
			}
		}
		JOINT LeftShoulder
		{
			OFFSET 0.019635 0.377685 -0.194865 
			CHANNELS 3 Zrotation Xrotation Yrotation
			JOINT LeftElbow
			{
				OFFSET 0.000000 -0.243375 0.000000 
				CHANNELS 2 Zrotation Yrotation
				JOINT LeftWrist
				{
					OFFSET 0.000000 -0.264825 0.000000 
					CHANNELS 2 Zrotation Xrotation
					End Site
					{
						OFFSET 0.006600 -0.176220 -0.000990 
					}
				}
			}
		}
	}
	JOINT RightHip
	{
		OFFSET 0.052140 -0.069960 0.075570 
		CHANNELS 3 Zrotation Xrotation Yrotation
		JOINT RightKnee
		{
			OFFSET 0.000000 -0.402270 0.000000 
			CHANNELS 1 Zrotation
			JOINT RightAnkle
			{
				OFFSET 0.000000 -0.404085 0.000000 
				CHANNELS 3 Zrotation Xrotation Yrotation
				End Site
				{
					OFFSET 0.204105 -0.089430 0.008415 
				}
			}
		}
	}
	JOINT LeftHip
	{
		OFFSET 0.052140 -0.069960 -0.075570 
		CHANNELS 3 Zrotation Xrotation Yrotation
		JOINT LeftKnee
		{
			OFFSET 0.000000 -0.402270 0.000000 
			CHANNELS 1 Zrotation
			JOINT LeftAnkle
			{
				OFFSET 0.000000 -0.404085 0.000000 
				CHANNELS 3 Zrotation Xrotation Yrotation
				End Site
				{
					OFFSET 0.204105 -0.089430 -0.008415 
				}
			}
		}
	}
}
MOTION
Frames: 28
Frame Time: 0.02
-1.29293 0.95381 -0.1798 166.04988 0 2.24578 2.24983 -2.7812 -4.04954 -28.63925 7.37007 6.83665 26.91113 -24.11287 3.92909 118.0806 38.71915 -31.61731 3.86944 19.88717 5.73347 -29.7275 96.24341 -69.47671 -25.59142 1.12443 11.45767 -6.75988 5.87144 -33.26464 11.13976 -0.51967 1.26069 -1.07247 -6.20821 4.02391 -15.10489 9.15113 7.39623 11.90687
-1.29277 0.95393 -0.1796 166.08307 0 2.18028 2.26128 -2.75989 -4.05322 -29.26208 7.44667 6.93386 27.38212 -24.62513 4.90338 118.15324 42.14623 -30.04095 3.37622 20.69659 5.52024 -29.85738 96.11871 -69.54065 -25.64049 1.13988 11.27312 -6.69306 5.92032 -32.90947 11.10912 -0.58738 1.16644 -1.03267 -6.15248 3.986 -15.15502 9.16425 7.40414 11.92211
-1.29264 0.95408 -0.17958 166.15445 0 2.10439 2.2843 -2.73474 -4.04762 -30.0281 7.52327 7.0355 27.9519 -25.24537 6.1037 118.23049 46.38865 -28.03473 2.78042 21.67191 5.28496 -30.00795 95.96685 -69.60424 -25.66423 1.15245 11.04956 -6.6051 5.97022 -32.50678 11.07869 -0.67818 1.0342 -0.98957 -6.07697 3.91265 -15.21255 9.1782 7.41183 11.93721
-1.29248 0.95422 -0.17948 166.20667 0 2.03436 2.29629 -2.71333 -4.04581 -30.70813 7.59684 7.13191 28.46254 -25.81501 7.22071 118.29662 50.16716 -26.23084 2.25319 22.54884 5.06522 -30.14857 95.83606 -69.6661 -25.70128 1.16609 10.84856 -6.52791 6.01729 -32.13233 11.04742 -0.75632 0.92317 -0.94754 -6.01119 3.85658 -15.26614 9.19067 7.41941 11.95324
-1.29239 0.95435 -0.17936 166.2689 0 1.95923 2.33352 -2.6834 -4.04569 -31.48039 7.6835 7.24127 29.03716 -26.39411 8.26059 118.40163 54.34085 -24.38876 1.63522 23.52761 4.82078 -30.29184 95.6677 -69.73602 -25.73197 1.18086 10.62472 -6.4453 6.07305 -31.72701 11.01978 -0.84558 0.79355 -0.90677 -5.94177 3.79264 -15.32342 9.20796 7.42813 11.96643
-1.29215 0.95449 -0.17932 166.31814 0 1.89245 2.32008 -2.67043 -4.03998 -32.09079 7.74274 7.32498 29.49861 -26.97616 9.51034 118.42587 57.88808 -22.53411 1.17866 24.32941 4.62346 -30.4341 95.57188 -69.78887 -25.76958 1.19254 10.4404 -6.36913 6.11173 -31.37603 10.98447 -0.91633 0.69446 -0.86294 -5.87542 3.73841 -15.37392 9.21531 7.43424 11.98483
-1.29154 0.95463 -0.17947 166.326 0 1.85025 2.17014 -2.70396 -4.01999 -32.24708 7.72671 7.33642 29.6469 -27.56233 11.31462 118.23357 59.46417 -20.6696 1.2239 24.63204 4.55722 -30.57158 95.6769 -69.79714 -25.83041 1.19653 10.37113 -6.31614 6.09939 -31.18351 10.92754 -0.93137 0.6878 -0.80966 -5.82254 3.71193 -15.4085 9.19531 7.43414 12.02226
-1.29077 0.95477 -0.1797 166.31857 0 1.81699 1.96768 -2.75486 -3.99488 -32.23038 7.68302 7.32194 29.6735 -28.14327 13.31498 117.95871 60.38916 -18.82353 1.4295 24.7452 4.54012 -30.70661 95.85673 -69.78802 -25.89915 1.19748 10.34384 -6.27038 6.07057 -31.04813 10.86285 -0.92654 0.71362 -0.75376 -5.77346 3.69801 -15.43508 9.16522 7.43121 12.06412
-1.29006 0.9549 -0.17989 166.31523 0 1.78036 1.78499 -2.79878 -3.97288 -32.27405 7.65156 7.31979 29.73987 -28.71198 15.20719 117.71624 61.63841 -17.02042 1.54144 24.9248 4.50357 -30.84093 96.00671 -69.78499 -25.96562 1.1997 10.30014 -6.22127 6.05184 -30.88923 10.80196 -0.92981 0.72568 -0.70029 -5.72264 3.68403 -15.46213 9.13955 7.42893 12.10074
-1.2894 0.95505 -0.18008 166.32494 0 1.74058 1.61958 -2.83907 -3.94737 -32.39868 7.62124 7.3159 29.87437 -29.34677 17.19342 117.49432 62.79481 -14.981 1.73738 25.19225 4.4541 -30.98429 96.13941 -69.7887 -26.02617 1.20224 10.24424 -6.17174 6.02235 -30.71885 10.74008 -0.93773 0.73234 -0.64154 -5.67125 3.64582 -15.50259 9.11461 7.4294 12.15058
-1.2886 0.95518 -0.1803 166.30384 0 1.70944 1.40609 -2.89062 -3.92791 -32.31311 7.58236 7.30885 29.83792 -29.84046 19.02026 117.21151 63.9814 -13.44945 1.79798 25.23079 4.44346 -31.10718 96.32472 -69.77536 -26.10058 1.20351 10.22366 -6.12502 6.01112 -30.5859 10.67824 -0.9311 0.75824 -0.59311 -5.62214 3.66043 -15.51342 9.08571 7.42341 12.17446
-1.28746 0.95526 -0.18059 166.19693 0 1.70155 1.06806 -2.973 -3.92806 -31.67629 7.52316 7.30422 29.34828 -29.95241 20.41896 116.7673 65.38395 -13.26669 1.44548 24.67187 4.52888 -31.18088 96.6507 -69.70939 -26.21729 1.20134 10.29598 -6.08513 6.05621 -30.5493 10.62008 -0.88763 0.83146 -0.57449 -5.57926 3.82703 -15.44223 9.04884 7.4008 12.12122
-1.28619 0.95534 -0.1809 166.06037 0 1.70186 0.68422 -3.06536 -3.93436 -30.8354 7.45681 7.29631 28.69214 -29.92095 21.63795 116.26728 66.83693 -13.60366 0.9526 23.89037 4.65187 -31.23283 97.02491 -69.62849 -26.3468 1.1981 10.40177 -6.04786 6.11983 -30.54779 10.56206 -0.83036 0.92273 -0.56604 -5.53854 4.04452 -15.3422 9.00835 7.3718 12.04255
-1.28499 0.95542 -0.18121 165.9399 0 1.69733 0.32436 -3.15059 -3.93667 -30.09609 7.39619 7.28682 28.11913 -29.94998 22.89898 115.80143 68.28441 -13.73971 0.52356 23.21779 4.75693 -31.29001 97.36782 -69.5611 -26.46649 1.19583 10.48852 -6.0088 6.1738 -30.52533 10.5027 -0.78033 1.00447 -0.55275 -5.49625 4.23323 -15.25629 8.96903 7.34526 11.97836
-1.28375 0.95549 -0.18152 165.80712 0 1.69753 -0.05049 -3.24746 -3.94331 -29.31443 7.32473 7.28968 27.51121 -29.99785 24.3351 115.29494 69.64971 -13.73576 0.09653 22.5064 4.86639 -31.3662 97.75177 -69.46549 -26.6028 1.19152 10.59202 -5.97209 6.23262 -30.52416 10.44787 -0.72563 1.09279 -0.5411 -5.45628 4.44744 -15.16441 8.93086 7.32011 11.90188
-1.28257 0.95559 -0.18181 165.6941 0 1.69004 -0.40453 -3.3221 -3.9431 -28.5736 7.27378 7.26603 26.93704 -29.9735 25.36026 114.86163 71.18952 -14.1359 -0.36591 21.82483 4.97612 -31.3984 98.06219 -69.42436 -26.7081 1.19111 10.6691 -5.93156 6.28566 -30.48849 10.38445 -0.67753 1.17143 -0.52747 -5.41233 4.61896 -15.08 8.89021 7.29108 11.84502
-1.28161 0.95579 -0.18209 165.6339 0 1.65722 -0.6884 -3.33479 -3.91602 -28.00405 7.28777 7.17251 26.50612 -29.77654 25.30348 114.63879 73.34284 -15.61533 -0.92603 21.28466 5.06763 -31.30817 98.14536 -69.54539 -26.71863 1.20285 10.65805 -5.87506 6.32211 -30.33285 10.2912 -0.65224 1.21727 -0.51451 -5.35393 4.67341 -15.0082 8.83826 7.2485 11.84758
-1.28071 0.95602 -0.18235 165.59592 0 1.61714 -0.95023 -3.32483 -3.88236 -27.48065 7.32176 7.05179 26.11393 -29.5139 24.83804 114.49308 75.64383 -17.46467 -1.50979 20.78145 5.15974 -31.17573 98.15524 -69.72005 -26.69844 1.21833 10.62191 -5.81546 6.35242 -30.14638 10.19039 -0.63407 1.2527 -0.49755 -5.29233 4.68095 -14.94775 8.785 7.20305 11.87088
-1.27979 0.95623 -0.18259 165.55429 0 1.58119 -1.22223 -3.32326 -3.85689 -26.93284 7.34218 6.94231 25.69826 -29.28617 24.55106 114.31575 77.78918 -19.08753 -2.06301 20.26032 5.2577 -31.06662 98.20586 -69.86534 -26.6964 1.23138 10.59962 -5.76038 6.38183 -29.98133 10.09716 -0.61179 1.29408 -0.47684 -5.23364 4.70074 -14.8921 8.7359 7.16184 11.88533
-1.27887 0.95648 -0.18292 165.48621 0 1.54037 -1.49324 -3.32802 -3.81262 -26.39728 7.38043 6.83857 25.30083 -29.0301 24.28281 114.12131 80.31993 -20.98257 -2.71096 19.73944 5.33099 -30.93877 98.22505 -70.03242 -26.67774 1.24754 10.56175 -5.69234 6.4235 -29.77655 9.98675 -0.59218 1.33178 -0.48025 -5.16742 4.75911 -14.79355 8.67163 7.10807 11.89661
-1.27795 0.95665 -0.18308 165.47663 0 1.50996 -1.76297 -3.31671 -3.80219 -25.84362 7.38741 6.71503 24.87769 -28.82179 23.88806 113.98235 82.06952 -22.38223 -3.15746 19.22547 5.45554 -30.84081 98.29392 -70.16554 -26.68546 1.25803 10.55799 -5.65041 6.44289 -29.6589 9.90991 -0.56953 1.37338 -0.43204 -5.11793 4.72718 -14.78725 8.6387 7.07977 11.91955
-1.2771 0.95668 -0.18276 165.64362 0 1.49114 -2.01314 -3.24322 -3.91866 -25.28303 7.29481 6.55603 24.3704 -28.7404 23.17988 113.96942 81.73758 -22.40867 -3.11238 18.75965 5.71914 -30.8311 98.49748 -70.20543 -26.78006 1.25278 10.58358 -5.68161 6.35782 -29.68033 9.93168 -0.53104 1.43762 -0.24491 -5.09869 4.44069 -15.03385 8.69197 7.12319 11.97153
-1.27622 0.95662 -0.18228 165.86564 0 1.48597 -2.26683 -3.15815 -4.06374 -24.69336 7.17177 6.37589 23.83953 -28.71352 22.36977 114.01018 80.59419 -21.90968 -2.85205 18.29365 6.03441 -30.85415 98.75666 -70.20728 -26.90105 1.24158 10.65605 -5.73871 6.2574 -29.80726 9.98709 -0.4902 1.50454 -0.0057 -5.09881 4.06748 -15.37233 8.77662 7.19205 12.03426
-1.27529 0.95657 -0.18187 166.04842 0 1.48765 -2.53234 -3.09431 -4.17446 -24.08267 7.06803 6.197 23.32009 -28.67677 21.65125 114.03371 79.74785 -21.58715 -2.64064 17.80373 6.32755 -30.86504 99.00412 -70.21714 -27.00549 1.23254 10.75521 -5.78429 6.19481 -29.96164 10.02394 -0.45447 1.56374 0.21177 -5.10187 3.74505 -15.669 8.84778 7.24912 12.09105
-1.27462 0.95665 -0.18143 166.28958 0 1.43631 -2.73927 -2.96438 -4.37393 -23.61876 6.94143 6.05174 22.79032 -28.5766 20.7337 114.03497 79.20605 -21.52289 -2.62777 17.4158 6.61561 -30.86197 99.19376 -70.26624 -27.12778 1.22581 10.65662 -5.83042 6.00733 -29.81084 10.07282 -0.40266 1.64909 0.42232 -5.05807 3.3743 -15.96856 8.91703 7.3079 12.15327
-1.2734 0.95646 -0.18105 166.42501 0 1.49581 -3.0708 -2.96701 -4.39693 -22.8407 6.85557 5.83262 22.2867 -28.61997 20.20374 114.08767 77.83958 -20.81376 -2.16101 16.81557 6.92575 -30.89752 99.51558 -70.22614 -27.21997 1.21298 10.97416 -5.87945 6.06943 -30.30333 10.10666 -0.38274 1.68191 0.65824 -5.11299 3.08258 -16.28089 8.99601 7.36812 12.20612
-1.27063 0.95546 -0.18073 166.22902 0 1.88317 -3.73263 -3.36107 -3.91241 -21.2116 6.88415 5.40734 21.77305 -29.06724 20.84186 114.32185 74.35483 -18.25354 -0.39658 15.62486 7.29033 -31.02157 100.20933 -69.92909 -27.21896 1.18318 12.48999 -5.94821 6.88627 -32.69726 10.07297 -0.45992 1.55845 0.96268 -5.4656 3.04449 -16.63039 9.10884 7.43524 12.23274
-1.26731 0.95422 -0.1805 165.92993 0 2.3769 -4.52184 -3.88469 -3.25159 -19.26652 6.95568 4.90982 21.3051 -29.65337 21.86266 114.59266 70.07405 -15.097 1.80018 14.22194 7.674 -31.18546 101.03046 -69.54688 -27.18745 1.14773 14.41062 -6.01544 7.94465 -35.70536 10.02541 -0.5679 1.3837 1.28847 -5.91109 3.08655 -16.98476 9.22767 7.50122 12.24868
